<svg version="1.1" preserveAspectRatio="none" xmlns="http://www.w3.org/2000/svg" width="500" height="500" viewBox="0 0 500 500"><rect width="100%" height="100%" fill="#F3F0ED" fill-opacity="1"/><svg viewBox="169.3667 182.2919 140.4776 120" width="333" height="284.4581627248757" x="83.5px" y="107.7709px" xmlns="http://www.w3.org/2000/svg" xmlns:xlink="http://www.w3.org/1999/xlink" preserveAspectRatio="none"><defs></defs><style>.companyName {fill:#9E2D0B;fill-opacity:1;}.icon3-str {stroke:#F3977A;stroke-opacity:1;}</style><g opacity="1" transform="rotate(0 169.3667 182.2919)">
<svg width="140.4776" height="120" x="169.3667" y="182.2919" version="1.1" preserveAspectRatio="none" viewBox="-0.7227 -26.1719 53.88680000000001 46.0352">
  <g transform="matrix(1 0 0 1 0 0)" class="companyName"><path id="id-D6z1nYkh4" d="M2.79-8.03L2.79-8.03Q2.71-7.50 2.60-7.04Q2.48-6.58 2.37-6.24Q2.27-5.90 2.19-5.68Q2.11-5.47 2.09-5.45L2.09-5.45Q1.89-5 1.41-5L1.41-5Q1.13-5 0.90-5.21Q0.66-5.41 0.66-5.72L0.66-5.72Q0.66-5.84 0.70-5.90Q0.74-5.96 0.82-6.13Q0.90-6.31 1.02-6.72Q1.13-7.13 1.31-7.99L1.31-7.99Q0.98-7.99 0.63-8.01Q0.27-8.03-0.03-8.14Q-0.33-8.26-0.53-8.52Q-0.72-8.77-0.72-9.22L-0.72-9.22Q-0.72-9.55-0.54-10.12Q-0.35-10.68-0.04-11.23Q0.27-11.78 0.66-12.18Q1.05-12.58 1.45-12.58L1.45-12.58Q1.89-12.58 2.18-12.25Q2.46-11.91 2.62-11.44Q2.77-10.96 2.84-10.43Q2.91-9.90 2.91-9.51L2.91-9.51Q3.24-9.51 3.56-9.52Q3.89-9.53 4.18-9.53L4.18-9.53Q5.29-9.53 5.88-9.04Q6.46-8.55 6.46-7.44L6.46-7.44Q6.46-6.99 6.41-6.50Q6.35-6.02 6.27-5.50Q6.19-4.98 6.13-4.47Q6.07-3.96 6.07-3.48L6.07-3.48Q6.07-2.77 6.27-2.31Q6.46-1.86 6.76-1.58Q7.05-1.31 7.38-1.20Q7.71-1.09 7.99-1.09L7.99-1.09Q8.83-1.09 9.57-1.64Q10.31-2.19 10.94-2.96Q11.56-3.73 12.06-4.59Q12.56-5.45 12.89-6.09L12.89-6.09Q12.99-6.27 13.16-6.37Q13.34-6.46 13.54-6.46L13.54-6.46Q13.89-6.46 14.08-6.24Q14.28-6.02 14.28-5.74L14.28-5.74Q14.28-5.55 14.20-5.39L14.20-5.39Q13.75-4.59 13.15-3.58Q12.56-2.58 11.80-1.70Q11.04-0.82 10.09-0.21Q9.14 0.39 8.01 0.39L8.01 0.39Q7.30 0.39 6.68 0.13Q6.05-0.14 5.60-0.63Q5.14-1.13 4.86-1.87Q4.59-2.60 4.59-3.52L4.59-3.52Q4.59-4.49 4.79-5.46Q4.98-6.43 4.98-7.30L4.98-7.30Q4.98-7.68 4.81-7.86Q4.65-8.05 4.08-8.05L4.08-8.05Q3.81-8.05 3.49-8.05Q3.16-8.05 2.79-8.03ZM0.63-9.47L1.48-9.47Q1.48-9.61 1.47-9.83Q1.46-10.06 1.44-10.27Q1.41-10.49 1.36-10.64Q1.31-10.80 1.25-10.80L1.25-10.80Q1.19-10.80 1.10-10.65Q1.02-10.51 0.92-10.30Q0.82-10.10 0.74-9.86Q0.66-9.63 0.63-9.47L0.63-9.47Z M20.45-5.68L20.45-5.68Q21.41-1.17 23.22-1.17L23.22-1.17Q23.93-1.17 24.57-1.69Q25.21-2.21 25.77-2.96Q26.33-3.71 26.76-4.55Q27.19-5.39 27.46-6.02L27.46-6.02Q27.66-6.48 28.14-6.48L28.14-6.48Q28.46-6.48 28.67-6.25Q28.89-6.02 28.89-5.74L28.89-5.74Q28.89-5.59 28.83-5.47L28.83-5.47Q28.69-5.14 28.43-4.58Q28.16-4.02 27.78-3.39Q27.40-2.75 26.93-2.09Q26.46-1.43 25.90-0.90Q25.33-0.37 24.70-0.03Q24.06 0.31 23.36 0.31L23.36 0.31Q22.05 0.31 21.11-0.60Q20.18-1.50 19.49-3.59L19.49-3.59Q18.55-1.60 17.60-0.70Q16.64 0.20 15.53 0.20L15.53 0.20Q14.94 0.20 14.39 0.01Q13.85-0.18 13.44-0.61Q13.03-1.04 12.77-1.71Q12.52-2.38 12.52-3.36L12.52-3.36Q12.52-4.71 12.99-5.84Q13.46-6.97 14.20-7.78Q14.94-8.59 15.85-9.04Q16.76-9.49 17.66-9.49L17.66-9.49Q17.95-9.49 18.16-9.29Q18.38-9.08 18.38-8.77L18.38-8.77Q18.38-8.50 18.20-8.28Q18.03-8.07 17.73-8.03L17.73-8.03Q17.15-7.95 16.48-7.66Q15.82-7.36 15.26-6.81Q14.71-6.25 14.35-5.39Q13.98-4.53 13.98-3.34L13.98-3.34Q13.98-2.36 14.38-1.82Q14.79-1.27 15.55-1.27L15.55-1.27Q15.86-1.27 16.21-1.44Q16.56-1.60 16.96-2.09Q17.36-2.58 17.84-3.48Q18.32-4.38 18.91-5.84L18.91-5.84Q18.57-7.56 18.30-9.80Q18.03-12.05 18.03-14.82L18.03-14.82Q18.03-16.04 18.11-17.35Q18.18-18.67 18.36-19.93Q18.54-21.19 18.83-22.32Q19.12-23.46 19.54-24.32Q19.96-25.18 20.53-25.67Q21.09-26.17 21.82-26.17L21.82-26.17Q22.46-26.17 22.91-25.82Q23.36-25.47 23.64-24.84Q23.93-24.22 24.06-23.34Q24.20-22.46 24.20-21.41L24.20-21.41Q24.20-19.14 23.81-16.88Q23.42-14.61 22.84-12.54Q22.27-10.47 21.62-8.71Q20.98-6.95 20.45-5.68ZM22.73-21.43L22.73-21.43Q22.73-21.91 22.71-22.48Q22.68-23.05 22.57-23.54Q22.46-24.04 22.29-24.38Q22.11-24.71 21.82-24.71L21.82-24.71Q21.33-24.71 20.91-23.85Q20.49-22.99 20.18-21.59Q19.86-20.20 19.68-18.43Q19.49-16.66 19.49-14.86L19.49-14.86Q19.49-13.14 19.63-11.43Q19.77-9.71 19.94-8.36L19.94-8.36Q20.51-9.86 21.02-11.46Q21.52-13.05 21.90-14.71Q22.29-16.37 22.51-18.06Q22.73-19.75 22.73-21.43Z M29.65-7.23L29.65-7.23Q29.53-6.91 29.37-6.52Q29.20-6.13 28.98-5.70L28.98-5.70Q28.81-5.37 28.62-5.19Q28.44-5 28.14-5L28.14-5Q27.81-5 27.62-5.21Q27.42-5.41 27.42-5.68L27.42-5.68Q27.42-5.78 27.44-5.85Q27.46-5.92 27.54-6.07L27.54-6.07Q28.05-7.05 28.29-7.78Q28.54-8.52 28.69-9.32L28.69-9.32Q28.55-9.77 28.50-10.08Q28.44-10.39 28.44-10.72L28.44-10.72Q28.44-11.37 28.71-11.77Q28.98-12.17 29.47-12.17L29.47-12.17Q29.92-12.17 30.19-11.78Q30.45-11.39 30.45-10.82L30.45-10.82Q30.45-10.51 30.39-10.20Q30.33-9.88 30.23-9.41L30.23-9.41Q30.68-8.30 31.13-7.44Q31.58-6.58 31.93-5.87Q32.29-5.16 32.51-4.53Q32.73-3.91 32.73-3.28L32.73-3.28Q32.73-2.46 32.40-1.72Q32.07-0.98 31.31-0.47L31.31-0.47Q31.41-0.45 31.50-0.45Q31.60-0.45 31.70-0.45L31.70-0.45Q32.81-0.45 33.75-0.96Q34.69-1.46 35.44-2.28Q36.19-3.09 36.78-4.07Q37.36-5.06 37.79-6.04L37.79-6.04Q37.99-6.48 38.34-6.48L38.34-6.48Q38.67-6.48 38.86-6.25Q39.04-6.02 39.04-5.74L39.04-5.74Q39.04-5.59 38.98-5.45L38.98-5.45Q38.77-4.92 38.43-4.25Q38.09-3.57 37.61-2.86Q37.13-2.15 36.50-1.46Q35.88-0.78 35.11-0.24Q34.34 0.29 33.42 0.62Q32.50 0.94 31.41 0.94L31.41 0.94Q30.10 0.94 28.97 0.48Q27.85 0.02 27.15-1.04L27.15-1.04Q27.03-1.21 27.03-1.41L27.03-1.41Q27.03-1.70 27.26-1.92Q27.48-2.15 27.77-2.15L27.77-2.15Q28.09-2.15 28.30-1.93L28.30-1.93Q28.32-1.89 28.44-1.81Q28.55-1.72 28.72-1.61Q28.89-1.50 29.11-1.43Q29.34-1.35 29.57-1.35L29.57-1.35Q30.04-1.35 30.36-1.54Q30.68-1.74 30.88-2.02Q31.07-2.30 31.16-2.63Q31.25-2.95 31.25-3.18L31.25-3.18Q31.25-3.67 31.09-4.16Q30.94-4.65 30.69-5.14Q30.45-5.63 30.17-6.14Q29.88-6.66 29.65-7.23Z M47.66-5.45L47.66-5.45Q47.66-3.65 47.01-2.38Q46.37-1.11 45.43-0.45L45.43-0.45L45.51-0.45Q46.66-0.45 47.61-0.97Q48.55-1.48 49.32-2.29Q50.08-3.11 50.68-4.10Q51.29-5.10 51.76-6.04L51.76-6.04Q51.86-6.25 52.04-6.37Q52.23-6.48 52.44-6.48L52.44-6.48Q52.77-6.48 52.97-6.25Q53.16-6.02 53.16-5.74L53.16-5.74Q53.16-5.59 53.11-5.45L53.11-5.45Q52.60-4.32 51.89-3.17Q51.19-2.03 50.25-1.11Q49.32-0.20 48.14 0.38Q46.97 0.96 45.55 0.96L45.55 0.96Q44.51 0.96 43.54 0.63Q42.56 0.31 41.82-0.37L41.82-0.37Q41.54-0.59 41.35-0.83Q41.15-1.07 41.04-1.29L41.04-1.29Q41.00-1.33 41.00-1.37L41.00-1.37Q40.88-1.54 40.88-1.74L40.88-1.74Q40.88-1.99 41.05-2.21L41.05-2.21Q41.07-2.25 41.09-2.26Q41.11-2.27 41.13-2.29L41.13-2.29Q41.33-2.46 41.56-2.48L41.56-2.48L41.62-2.48Q41.72-2.48 41.76-2.46L41.76-2.46Q41.78-2.46 41.79-2.45Q41.80-2.44 41.82-2.44L41.82-2.44Q41.88-2.44 41.95-2.40L41.95-2.40Q41.97-2.38 41.99-2.38L41.99-2.38Q42.17-2.27 42.29-2.09L42.29-2.09Q42.42-1.86 42.60-1.66L42.60-1.66Q42.75-1.50 42.97-1.38Q43.18-1.25 43.46-1.25L43.46-1.25Q43.95-1.25 44.43-1.54Q44.92-1.84 45.31-2.38Q45.70-2.93 45.95-3.71Q46.19-4.49 46.19-5.45L46.19-5.45Q46.19-6.15 46.04-6.65Q45.90-7.15 45.67-7.46Q45.45-7.77 45.20-7.92Q44.94-8.07 44.71-8.07L44.71-8.07Q44.18-8.07 43.64-7.52Q43.11-6.97 42.58-6.13Q42.05-5.29 41.53-4.28Q41.02-3.26 40.49-2.30L40.49-2.30Q40.45 0.86 40.38 3.73Q40.31 6.60 40.15 9.06Q39.98 11.52 39.69 13.52Q39.39 15.51 38.89 16.92Q38.38 18.34 37.64 19.10Q36.89 19.86 35.82 19.86L35.82 19.86Q35.49 19.86 35.06 19.73Q34.63 19.59 34.26 19.17Q33.89 18.75 33.63 17.97Q33.38 17.19 33.38 15.88L33.38 15.88Q33.38 14.22 33.79 12.03Q34.20 9.84 34.95 7.39Q35.70 4.94 36.74 2.36Q37.77-0.21 39.02-2.66L39.02-2.66Q39.02-3.34 39.03-4.00Q39.04-4.67 39.04-5.29L39.04-5.29Q38.79-5 38.44-5L38.44-5Q38.11-5 37.91-5.23Q37.71-5.47 37.71-5.74L37.71-5.74Q37.71-5.88 37.77-6.04L37.77-6.04Q38.24-7.11 38.50-8.08Q38.75-9.04 38.88-9.78Q39.00-10.51 39.02-10.94Q39.04-11.37 39.04-11.39L39.04-11.39Q39.04-11.68 39.26-11.89Q39.47-12.11 39.79-12.11L39.79-12.11Q40.08-12.11 40.29-11.90Q40.51-11.70 40.51-11.39L40.51-11.39L40.51-5.39Q40.96-6.15 41.41-6.89Q41.86-7.64 42.35-8.22Q42.85-8.81 43.43-9.17Q44.00-9.53 44.71-9.53L44.71-9.53Q45.37-9.53 45.92-9.22Q46.46-8.91 46.86-8.36Q47.25-7.81 47.45-7.06Q47.66-6.31 47.66-5.45ZM38.98 0.82L38.98 0.82Q38.03 2.97 37.26 5.14Q36.48 7.30 35.95 9.32Q35.41 11.33 35.12 13.09Q34.82 14.84 34.82 16.17L34.82 16.17Q34.82 16.50 34.86 16.89Q34.90 17.29 35.02 17.62Q35.14 17.95 35.35 18.17Q35.57 18.40 35.92 18.40L35.92 18.40Q36.56 18.40 37.03 17.59Q37.50 16.78 37.82 15.40Q38.14 14.02 38.36 12.24Q38.57 10.45 38.70 8.50Q38.83 6.54 38.89 4.56Q38.95 2.58 38.98 0.82Z"/></g>
</svg>
</g></svg></svg>