<svg version="1.1" preserveAspectRatio="none" xmlns="http://www.w3.org/2000/svg" width="500" height="500" viewBox="0 0 500 500"><rect width="100%" height="100%" fill="#121212" fill-opacity="1"/><svg viewBox="392.6342 540.9865 357.2101 288.6049" width="333" height="269.0445530515514" x="83.5px" y="115.4777px" xmlns="http://www.w3.org/2000/svg" xmlns:xlink="http://www.w3.org/1999/xlink" preserveAspectRatio="none"><defs></defs><style>.companyName {fill:#E3E3E3;fill-opacity:1;}.icon1 {fill:#F1EC40;fill-opacity:1;}.icon2 {fill:#555555;fill-opacity:1;}.icon3 {fill:#AAAAAA;fill-opacity:1;}.icon3-str {stroke:#AAAAAA;stroke-opacity:1;}</style><g opacity="1" transform="rotate(0 392.6342 749.5914)">
<svg width="357.2101" height="80" x="392.6342" y="749.5914" version="1.1" preserveAspectRatio="none" viewBox="2.9492 -28.0078 125.0586 28.0078">
  <g transform="matrix(1 0 0 1 0 0)" class="companyName"><path id="id-D6z1nYkh4" d="M30.94-21.84L30.94-18.59Q30.94-16.86 30.51-15.49Q30.08-14.12 29.35-13.08Q28.61-12.03 27.66-11.29Q26.70-10.55 25.65-10.07Q24.61-9.59 23.54-9.38Q22.48-9.16 21.54-9.16L21.54-9.16L32.15 0L24.30 0L13.71-9.16L10.06-9.16L10.06-14.24L21.54-14.24Q22.50-14.32 23.29-14.64Q24.08-14.96 24.66-15.51Q25.23-16.05 25.55-16.83Q25.86-17.60 25.86-18.59L25.86-18.59L25.86-21.80Q25.86-22.23 25.75-22.45Q25.64-22.68 25.48-22.78Q25.31-22.89 25.13-22.91Q24.94-22.93 24.79-22.93L24.79-22.93L8.03-22.93L8.03 0L2.95 0L2.95-25.45Q2.95-25.98 3.14-26.45Q3.34-26.91 3.68-27.27Q4.02-27.62 4.49-27.81Q4.96-28.01 5.51-28.01L5.51-28.01L24.79-28.01Q26.48-28.01 27.66-27.39Q28.83-26.78 29.56-25.85Q30.29-24.92 30.62-23.85Q30.94-22.77 30.94-21.84L30.94-21.84Z M63.98-16.29L63.98-11.72Q63.98-9.16 63.10-7.01Q62.21-4.86 60.64-3.31Q59.08-1.76 56.93-0.88Q54.79 0 52.27 0L52.27 0L38.55 0Q38.01 0 37.54-0.20Q37.07-0.39 36.73-0.73Q36.39-1.07 36.19-1.54Q36.00-2.01 36.00-2.56L36.00-2.56L36.00-25.45Q36.00-25.98 36.19-26.45Q36.39-26.91 36.73-27.27Q37.07-27.62 37.54-27.81Q38.01-28.01 38.55-28.01L38.55-28.01L52.27-28.01Q54.79-28.01 56.93-27.13Q59.08-26.25 60.64-24.70Q62.21-23.14 63.10-20.99Q63.98-18.83 63.98-16.29L63.98-16.29ZM58.91-11.72L58.91-16.29Q58.91-17.77 58.43-19.00Q57.95-20.23 57.07-21.10Q56.19-21.97 54.97-22.45Q53.75-22.93 52.27-22.93L52.27-22.93L41.07-22.93L41.07-5.08L52.27-5.08Q53.75-5.08 54.97-5.56Q56.19-6.04 57.07-6.90Q57.95-7.77 58.43-8.99Q58.91-10.21 58.91-11.72L58.91-11.72Z M95.88-8.24L95.88-8.24Q95.88-6.74 95.50-5.54Q95.12-4.34 94.49-3.42Q93.87-2.50 93.03-1.86Q92.19-1.21 91.29-0.80Q90.39-0.39 89.46-0.20Q88.54 0 87.71 0L87.71 0L68.13 0L68.13-5.08L87.71-5.08Q89.18-5.08 89.99-5.94Q90.80-6.80 90.80-8.24L90.80-8.24Q90.80-8.95 90.59-9.53Q90.37-10.12 89.97-10.55Q89.57-10.98 88.99-11.21Q88.42-11.45 87.71-11.45L87.71-11.45L76.04-11.45Q74.80-11.45 73.38-11.88Q71.95-12.32 70.73-13.30Q69.51-14.28 68.70-15.86Q67.89-17.44 67.89-19.73L67.89-19.73Q67.89-22.01 68.70-23.58Q69.51-25.16 70.73-26.14Q71.95-27.13 73.38-27.57Q74.80-28.01 76.04-28.01L76.04-28.01L93.32-28.01L93.32-22.93L76.04-22.93Q74.59-22.93 73.78-22.05Q72.97-21.17 72.97-19.73L72.97-19.73Q72.97-18.26 73.78-17.41Q74.59-16.56 76.04-16.56L76.04-16.56L87.71-16.56L87.75-16.56Q88.57-16.54 89.49-16.34Q90.41-16.13 91.32-15.70Q92.23-15.27 93.05-14.62Q93.87-13.96 94.50-13.05Q95.14-12.13 95.51-10.94Q95.88-9.75 95.88-8.24Z M128.01-18.59L128.01-16.29Q128.01-14.55 127.58-13.18Q127.15-11.82 126.42-10.77Q125.68-9.73 124.73-8.98Q123.77-8.24 122.72-7.77Q121.68-7.30 120.62-7.09Q119.55-6.88 118.61-6.88L118.61-6.88L107.13-6.88L107.13-11.95L118.61-11.95Q119.59-12.03 120.38-12.35Q121.17-12.68 121.74-13.22Q122.30-13.77 122.62-14.54Q122.93-15.31 122.93-16.29L122.93-16.29L122.93-18.59Q122.83-19.55 122.52-20.35Q122.21-21.15 121.67-21.72Q121.13-22.29 120.37-22.61Q119.61-22.93 118.61-22.93L118.61-22.93L107.17-22.93Q106.15-22.93 105.63-22.40Q105.10-21.88 105.10-20.88L105.10-20.88L105.10 0L100.02 0L100.02-20.88Q100.02-22.83 100.73-24.20Q101.45-25.57 102.51-26.41Q103.57-27.25 104.82-27.63Q106.07-28.01 107.13-28.01L107.13-28.01L118.61-28.01Q120.33-28.01 121.70-27.57Q123.07-27.13 124.11-26.40Q125.16-25.66 125.89-24.71Q126.62-23.75 127.10-22.71Q127.58-21.66 127.79-20.60Q128.01-19.53 128.01-18.59L128.01-18.59Z"/></g>
</svg>
</g><g opacity="1" transform="rotate(0 481.9368 540.9865)">
<svg width="178.605" height="178.6049" x="481.9368" y="540.9865" version="1.1" preserveAspectRatio="none" viewBox="19.99988555908203 20 160.0001220703125 160">
  <g transform="matrix(1 0 0 1 0 0)"><g><path d="M170 152.373a2.5 2.5 0 0 1-2.5-2.5V92.5a2.5 2.5 0 1 1 5 0v57.373a2.5 2.5 0 0 1-2.5 2.5z" data-color="1" class="icon1"></path><path d="M30 164.873a2.5 2.5 0 0 1-2.5-2.5V73.291c0-5.95 4.841-10.791 10.791-10.791H87.5a2.5 2.5 0 1 1 0 5H38.291a5.798 5.798 0 0 0-5.791 5.791v89.082a2.5 2.5 0 0 1-2.5 2.5z" data-color="1" class="icon1"></path><path d="M160 112.432a2.5 2.5 0 0 1-2.5-2.5V92.5a2.5 2.5 0 1 1 5 0v17.432a2.5 2.5 0 0 1-2.5 2.5z" data-color="1" class="icon1"></path><path d="M40 164.932a2.5 2.5 0 0 1-2.5-2.5V75a2.5 2.5 0 0 1 2.5-2.5h47.5a2.5 2.5 0 1 1 0 5h-45v84.932a2.5 2.5 0 0 1-2.5 2.5z" data-color="1" class="icon1"></path><path d="M110 180H40c-7.145 0-12.252-1.639-15.613-5.01-2.927-2.935-4.402-7.163-4.387-12.566a2.5 2.5 0 0 1 2.5-2.493h55a2.5 2.5 0 0 1 2.5 2.5V165h30a2.5 2.5 0 1 1 0 5H77.5a2.5 2.5 0 0 1-2.5-2.5v-2.568H25.129c.322 2.821 1.246 4.97 2.798 6.528C30.27 173.809 34.332 175 40 175h70a2.5 2.5 0 1 1 0 5z" data-color="1" class="icon1"></path><path d="M77.5 130c-6.893 0-12.5-5.435-12.5-12.114v-7.056c0-5.972 5.607-10.83 12.5-10.83S90 104.858 90 110.83v7.056C90 124.565 84.393 130 77.5 130zm0-25c-4.136 0-7.5 2.615-7.5 5.83v7.056c0 3.923 3.364 7.114 7.5 7.114s7.5-3.192 7.5-7.114v-7.056c0-3.215-3.364-5.83-7.5-5.83z" data-color="1" class="icon1"></path><path d="M100 150H55a2.5 2.5 0 0 1-2.5-2.5c0-5.16 2.823-14.207 8.882-17.236l10-5c.347-.174.73-.264 1.118-.264h10c.388 0 .771.09 1.118.264l10 5c6.059 3.029 8.882 12.076 8.882 17.236a2.5 2.5 0 0 1-2.5 2.5zm-42.253-5h39.507c-.699-3.892-2.84-8.748-5.872-10.264L81.91 130h-8.82l-9.472 4.736c-3.031 1.516-5.172 6.372-5.871 10.264z" data-color="1" class="icon1"></path><path d="M147.5 155c-8.271 0-15-7.16-15-15.962v-9.871c0-7.812 6.729-14.167 15-14.167s15 6.356 15 14.167v9.871c0 8.802-6.729 15.962-15 15.962zm0-35c-5.514 0-10 4.113-10 9.167v9.871c0 6.044 4.486 10.962 10 10.962s10-4.918 10-10.962v-9.871c0-5.054-4.486-9.167-10-9.167z" data-color="1" class="icon1"></path><path d="M175 180h-55a2.5 2.5 0 0 1-2.5-2.5c0-6.285 3.345-17.296 10.526-20.973l12.222-6.253c.353-.18.743-.274 1.139-.274h12.227c.396 0 .786.094 1.139.275l12.217 6.252c7.184 3.675 10.531 14.688 10.531 20.973A2.501 2.501 0 0 1 175 180zm-52.312-5h49.624c-.723-5.179-3.492-11.91-7.62-14.022L153.011 155h-11.022l-11.685 5.978c-4.126 2.113-6.893 8.843-7.616 14.022z" data-color="1" class="icon1"></path><path d="M125 67.5a2.497 2.497 0 0 1-2.5-2.5V40a2.502 2.502 0 0 1 3.618-2.236l25 12.5a2.5 2.5 0 0 1 0 4.472l-25 12.5A2.505 2.505 0 0 1 125 67.5zm2.5-23.455v16.91l16.91-8.455-16.91-8.455z" data-color="1" class="icon1"></path><path d="M97.499 100A2.496 2.496 0 0 1 95 97.5v-70c0-4.135 3.364-7.5 7.5-7.5h70c4.136 0 7.5 3.365 7.5 7.5v50c0 4.135-3.364 7.5-7.5 7.5h-58.964L99.268 99.268a2.5 2.5 0 0 1-1.769.732zm5.001-75a2.503 2.503 0 0 0-2.5 2.5v63.965l10.732-10.732A2.497 2.497 0 0 1 112.5 80h60c1.379 0 2.5-1.122 2.5-2.5v-50c0-1.378-1.121-2.5-2.5-2.5h-70z" data-color="1" class="icon1"></path></g></g>
</svg>
</g></svg></svg>